<svg id="Capa_1" enable-background="new 0 0 511.184 511.184" height="512" viewBox="0 0 511.184 511.184" width="512" xmlns="http://www.w3.org/2000/svg"><g><g><path d="m456.592 106h-424.8c-13.42 0-24.29 10.87-24.29 24.28v12.5l31.511 45.958h410.822l29.026-45.958v-14.52c.001-12.3-9.969-22.26-22.269-22.26z" fill="#5f99d7"/><g><path d="m456.592 106h-22.56v82.738h15.804l29.026-45.958v-14.52c0-12.3-9.97-22.26-22.27-22.26z" fill="#3c87d0"/><path d="m93.886 130.28c0-13.41 10.87-24.28 24.29-24.28h-86.384c-13.42 0-24.29 10.87-24.29 24.28v12.5l31.511 45.958h54.873z" fill="#3c87d0"/><g id="XMLID_490_"><g><path d="m478.862 142.78v310.22c0 13.41-10.88 24.29-24.29 24.29h-422.79c-13.41 0-24.28-10.88-24.28-24.29v-310.22z" fill="#dff6fd"/></g></g><path d="m93.886 453v-310.22h-86.384v310.22c0 13.41 10.87 24.29 24.28 24.29h86.38c-13.408-.003-24.276-10.881-24.276-24.29z" fill="#c8effe"/><g id="XMLID_492_"><g><path d="m434.032 309.445c0 7.442 1.771 14.777 5.167 21.4l18.861 36.78c4.035 7.815 12.005 12.671 20.801 12.671h.001v-237.516h-44.83z" fill="#c8effe"/><path d="m499.601 307.026h-37.758l-7.812 8.915 21.8 42.51c1.27 2.46 4.79 2.46 6.05 0l21.8-42.51z" fill="#fff5c6"/><path d="m484.702 33.89h-11.69c-10.48 0-18.98 8.5-18.98 18.99v21.53l7.695 10.918h35.331l6.623-10.918v-21.53c.001-10.49-8.499-18.99-18.979-18.99z" fill="#f37c7c"/><path d="m454.032 74.41h49.65v241.53h-49.65z" fill="#fee97d"/></g></g><path d="m132.102 209.79c-47.27 0-85.59 38.32-85.59 85.59 0 28.509 13.951 53.746 35.385 69.301l5.191-3.371h86.198l9.018 3.373c21.436-15.555 35.388-40.793 35.388-69.303 0-47.27-38.32-85.59-85.59-85.59z" fill="#5f99d7"/><path d="m97.914 339.602c-5.077-10.939-7.916-23.129-7.916-35.983 0-45.156 34.991-82.115 79.327-85.333-11.252-5.44-23.888-8.496-37.224-8.496-47.27 0-85.59 38.32-85.59 85.59 0 28.506 13.948 53.741 35.379 69.296z" fill="#3c87d0"/><circle cx="132.104" cy="273.069" fill="#ffe5c2" r="36.858"/><path d="m118.176 273.069c0-16.352 10.652-30.208 25.393-35.03-3.61-1.181-7.461-1.828-11.465-1.828-20.356 0-36.858 16.502-36.858 36.858s16.502 36.858 36.858 36.858c4.004 0 7.856-.647 11.465-1.828-14.741-4.822-25.393-18.678-25.393-35.03z" fill="#fed2a4"/><g id="XMLID_494_"><g><path d="m182.322 360.15v4.54c-14.11 10.24-31.46 16.28-50.22 16.28s-36.11-6.04-50.22-16.28v-4.54c0-27.74 22.49-50.22 50.22-50.22 13.87 0 26.43 5.62 35.51 14.71 9.09 9.08 14.71 21.64 14.71 35.51z" fill="#f37c7c"/></g></g><path d="m99.355 371.713c0-27.74 22.49-50.22 50.22-50.22 6.484 0 12.675 1.242 18.365 3.479-8.97-9.148-21.426-14.871-35.218-15.038-27.961-.338-50.84 23.154-50.84 51.117v3.64c5.385 3.908 11.245 7.199 17.473 9.782z" fill="#ee6161"/></g></g><g><path d="m478.858 390.852c-4.143 0-7.5 3.357-7.5 7.5v54.65c0 9.257-7.53 16.787-16.787 16.787h-422.784c-9.256 0-16.787-7.53-16.787-16.787v-302.717h409.031c4.143 0 7.5-3.357 7.5-7.5s-3.357-7.5-7.5-7.5h-409.031v-5.002c0-9.257 7.53-16.787 16.787-16.787h392.244c4.143 0 7.5-3.357 7.5-7.5s-3.357-7.5-7.5-7.5h-392.244c-17.528 0-31.787 14.26-31.787 31.787v322.719c0 17.527 14.259 31.787 31.787 31.787h422.784c17.527 0 31.787-14.26 31.787-31.787v-54.65c0-4.143-3.358-7.5-7.5-7.5z"/><path d="m484.702 26.395h-11.688c-14.603 0-26.482 11.88-26.482 26.482v138.368c0 4.143 3.357 7.5 7.5 7.5s7.5-3.357 7.5-7.5v-109.338h34.653v226.53h-34.653v-85.23c0-4.143-3.357-7.5-7.5-7.5s-7.5 3.357-7.5 7.5v92.73c0 1.19.283 2.363.826 3.423l21.804 42.512c1.874 3.653 5.59 5.924 9.696 5.924 4.107 0 7.823-2.271 9.697-5.924l21.804-42.512c.543-1.06.826-2.232.826-3.423v-263.06c-.001-14.602-11.881-26.482-26.483-26.482zm-23.171 40.512v-14.03c0-6.331 5.151-11.482 11.482-11.482h11.688c6.331 0 11.482 5.151 11.482 11.482v14.03zm17.326 281.002-12.551-24.472h25.102z"/><path d="m76.881 240.17c2.928-2.93 2.928-7.678-.001-10.606-2.929-2.93-7.677-2.928-10.607.001-17.578 17.583-27.259 40.958-27.259 65.818 0 51.331 41.76 93.092 93.091 93.092s93.091-41.761 93.091-93.092c0-51.33-41.76-93.09-93.091-93.09-12.752 0-25.128 2.545-36.782 7.563-3.805 1.639-5.561 6.051-3.922 9.855s6.052 5.561 9.854 3.922c9.77-4.208 20.149-6.341 30.85-6.341 43.06 0 78.091 35.031 78.091 78.09 0 20.779-8.173 39.673-21.454 53.679-.351-1.794-.779-3.575-1.3-5.334-1.176-3.972-5.348-6.232-9.322-5.061-3.971 1.177-6.237 5.351-5.06 9.322 1.171 3.953 1.765 8.043 1.765 12.157v.558c-12.285 8.063-26.959 12.771-42.72 12.771-15.76 0-30.435-4.708-42.72-12.771v-.558c0-23.556 19.164-42.72 42.72-42.72 9.183 0 17.936 2.874 25.312 8.312 3.333 2.457 8.03 1.747 10.487-1.587s1.747-8.029-1.587-10.487c-2.528-1.864-5.186-3.482-7.932-4.893 10.955-8.084 18.078-21.074 18.078-35.703 0-24.459-19.899-44.358-44.358-44.358s-44.358 19.899-44.358 44.358c0 14.635 7.128 27.63 18.092 35.711-15.491 7.95-26.937 22.694-30.375 40.277-13.277-14.005-21.449-32.897-21.449-53.673-.002-20.853 8.119-40.462 22.866-55.212zm55.223 3.54c16.188 0 29.358 13.17 29.358 29.358s-13.17 29.358-29.358 29.358-29.358-13.17-29.358-29.358 13.17-29.358 29.358-29.358z"/><path d="m410.655 242.92h-154.083c-4.142 0-7.5 3.357-7.5 7.5s3.358 7.5 7.5 7.5h154.083c4.143 0 7.5-3.357 7.5-7.5s-3.358-7.5-7.5-7.5z"/><path d="m410.655 334.32h-154.083c-4.142 0-7.5 3.357-7.5 7.5s3.358 7.5 7.5 7.5h154.083c4.143 0 7.5-3.357 7.5-7.5s-3.358-7.5-7.5-7.5z"/><path d="m410.655 380.019h-154.083c-4.142 0-7.5 3.357-7.5 7.5s3.358 7.5 7.5 7.5h154.083c4.143 0 7.5-3.357 7.5-7.5s-3.358-7.5-7.5-7.5z"/><path d="m46.513 440.718h364.142c4.143 0 7.5-3.357 7.5-7.5s-3.357-7.5-7.5-7.5h-364.142c-4.142 0-7.5 3.357-7.5 7.5s3.358 7.5 7.5 7.5z"/><path d="m410.655 287.884h-152.884c-4.142 0-7.5 3.357-7.5 7.5s3.358 7.5 7.5 7.5h152.884c4.143 0 7.5-3.357 7.5-7.5s-3.358-7.5-7.5-7.5z"/></g></g></svg>